<svg width="33" height="33" viewBox="0 0 33 33" fill="none" xmlns="http://www.w3.org/2000/svg">
<mask id="mask0_28_3" style="mask-type:alpha" maskUnits="userSpaceOnUse" x="0" y="0" width="33" height="33">
<rect width="33" height="33" fill="#4E59C3"/>
</mask>
<g mask="url(#mask0_28_3)">
<path d="M8.69699 28.5985C7.82269 28.5985 7.07493 28.2822 6.45372 27.6495C5.83251 27.0168 5.5219 26.2632 5.5219 25.3889L5.5219 12.585L3.00253 6.51095H0L0 3.75L4.86617 3.75L7.14396 9.2719L27.5405 9.2719C28.0697 9.2719 28.4723 9.49047 28.7484 9.92762C29.0245 10.3648 29.036 10.8134 28.7829 11.2736L24.8485 18.9697C26.0219 19.1538 27.0055 19.6945 27.7993 20.5918C28.5931 21.4891 28.99 22.5475 28.99 23.7669C28.99 25.1013 28.5241 26.2402 27.5922 27.1836C26.6604 28.1269 25.5273 28.5985 24.1928 28.5985C22.8354 28.5985 21.6907 28.1269 20.7589 27.1836C19.8271 26.2402 19.3612 25.1013 19.3612 23.7669C19.3612 23.3067 19.4187 22.8811 19.5337 22.4899C19.6488 22.0988 19.8098 21.7192 20.0169 21.3511L15.4958 20.9369L11.3544 27.149C11.0553 27.6092 10.6699 27.9658 10.1983 28.2189C9.7266 28.472 9.22617 28.5985 8.69699 28.5985ZM21.8805 18.7627L25.2972 12.0328L8.28285 12.0328L10.0084 16.1743C10.1925 16.6344 10.4859 17.0198 10.8885 17.3304C11.2911 17.641 11.757 17.8193 12.2862 17.8654L21.8805 18.7627ZM8.7315 25.8031C8.77752 25.8031 8.88105 25.7456 9.04211 25.6305L12.3898 20.6608C11.2624 20.5458 10.3766 20.2754 9.73235 19.8498C9.08813 19.4241 8.60496 18.9812 8.28285 18.5211V25.4235C8.28285 25.5385 8.32886 25.6305 8.4209 25.6995C8.51293 25.7686 8.61646 25.8031 8.7315 25.8031ZM24.1583 25.8376C24.7565 25.8376 25.2512 25.6363 25.6423 25.2336C26.0335 24.831 26.229 24.3421 26.229 23.7669C26.229 23.1687 26.0335 22.674 25.6423 22.2829C25.2512 21.8917 24.7565 21.6962 24.1583 21.6962C23.5831 21.6962 23.0942 21.8917 22.6916 22.2829C22.2889 22.674 22.0876 23.1687 22.0876 23.7669C22.0876 24.3421 22.2889 24.831 22.6916 25.2336C23.0942 25.6363 23.5831 25.8376 24.1583 25.8376Z" fill="#4E59C3"/>
</g>
</svg>
