<svg width="13" height="13" viewBox="0 0 13 13" fill="none" xmlns="http://www.w3.org/2000/svg">
<mask id="mask0_4_46" style="mask-type:alpha" maskUnits="userSpaceOnUse" x="0" y="0" width="13" height="13">
<rect width="13" height="13" fill="#D9D9D9"/>
</mask>
<g mask="url(#mask0_4_46)">
<path d="M3.79163 11.9167C3.49371 11.9167 3.23867 11.8106 3.02652 11.5984C2.81437 11.3863 2.70829 11.1313 2.70829 10.8333C2.70829 10.5354 2.81437 10.2804 3.02652 10.0682C3.23867 9.85608 3.49371 9.75 3.79163 9.75C4.08954 9.75 4.34458 9.85608 4.55673 10.0682C4.76888 10.2804 4.87496 10.5354 4.87496 10.8333C4.87496 11.1313 4.76888 11.3863 4.55673 11.5984C4.34458 11.8106 4.08954 11.9167 3.79163 11.9167ZM9.20829 11.9167C8.91038 11.9167 8.65534 11.8106 8.44319 11.5984C8.23104 11.3863 8.12496 11.1313 8.12496 10.8333C8.12496 10.5354 8.23104 10.2804 8.44319 10.0682C8.65534 9.85608 8.91038 9.75 9.20829 9.75C9.50621 9.75 9.76124 9.85608 9.9734 10.0682C10.1855 10.2804 10.2916 10.5354 10.2916 10.8333C10.2916 11.1313 10.1855 11.3863 9.9734 11.5984C9.76124 11.8106 9.50621 11.9167 9.20829 11.9167ZM3.33121 3.25L4.63121 5.95833H8.42288L9.91246 3.25H3.33121ZM2.81663 2.16667H10.8062C11.0138 2.16667 11.1718 2.2592 11.2802 2.44427C11.3885 2.62934 11.393 2.81667 11.2937 3.00625L9.37079 6.47292C9.27149 6.65347 9.13833 6.7934 8.97131 6.89271C8.8043 6.99201 8.62149 7.04167 8.42288 7.04167H4.38746L3.79163 8.125H10.2916V9.20833H3.79163C3.38538 9.20833 3.07843 9.03004 2.87079 8.67344C2.66315 8.31684 2.65413 7.9625 2.84371 7.61042L3.57496 6.28333L1.62496 2.16667H0.541626V1.08333H2.30204L2.81663 2.16667Z" fill="white"/>
</g>
</svg>
